#tb 0: 1001/24000
#media_type 0: video
#codec_id 0: rawvideo
#dimensions 0: 320x180
#sar 0: 1/1
0,          0,          0,        1,   230400, 0x690560cb
0,          1,          1,        1,   230400, 0x197a5a54
0,          2,          2,        1,   230400, 0x665961db
0,          3,          3,        1,   230400, 0xce0b5fa8
0,          4,          4,        1,   230400, 0xa40e5cb0
0,          5,          5,        1,   230400, 0xa5aa58da
0,          6,          6,        1,   230400, 0x8e0259bb
0,          7,          7,        1,   230400, 0x476d0dba
0,          8,          8,        1,   230400, 0xfb1b0e8c
0,          9,          9,        1,   230400, 0x50f60d3b
0,         10,         10,        1,   230400, 0x12cd4bab
0,         11,         11,        1,   230400, 0x4c274b13
0,         12,         12,        1,   230400, 0xea494b0a
0,         13,         13,        1,   230400, 0x118c4cc1
0,         14,         14,        1,   230400, 0xd4224db7
0,         15,         15,        1,   230400, 0xc3014f88
0,         16,         16,        1,   230400, 0xe07a6838
0,         17,         17,        1,   230400, 0x1b97659a
0,         18,         18,        1,   230400, 0xf104670c
0,         19,         19,        1,   230400, 0x7b63733d
0,         20,         20,        1,   230400, 0x2c237200
0,         21,         21,        1,   230400, 0x775d7248
0,         22,         22,        1,   230400, 0xcaee7f9e
0,         23,         23,        1,   230400, 0x4e4680a1
0,         24,         24,        1,   230400, 0x21fb7e53
0,         25,         25,        1,   230400, 0xf0297db6
0,         26,         26,        1,   230400, 0x79a9829d
0,         27,         27,        1,   230400, 0x8ccb80f7
0,         28,         28,        1,   230400, 0xf4dd807f
0,         29,         29,        1,   230400, 0xb6cc8696
0,         30,         30,        1,   230400, 0x6c8a8917
0,         31,         31,        1,   230400, 0x9e08615a
0,         32,         32,        1,   230400, 0xc098685b
0,         33,         33,        1,   230400, 0x5c09e710
0,         34,         34,        1,   230400, 0xe4c4e9be
0,         35,         35,        1,   230400, 0xac59c150
0,         36,         36,        1,   230400, 0x6045c272
0,         37,         37,        1,   230400, 0xf71ee6dc
0,         38,         38,        1,   230400, 0xc82ce6f6
0,         39,         39,        1,   230400, 0xb7ed039a
0,         40,         40,        1,   230400, 0xda93f241
0,         41,         41,        1,   230400, 0x194bf23b
0,         42,         42,        1,   230400, 0xe7e6f2e2
0,         43,         43,        1,   230400, 0xe479d834
0,         44,         44,        1,   230400, 0xefdfd87e
0,         45,         45,        1,   230400, 0xec66d8c0
0,         46,         46,        1,   230400, 0x3a6bd81b
0,         47,         47,        1,   230400, 0xb5d1d700
0,         48,         48,        1,   230400, 0x3bc69e8b
0,         49,         49,        1,   230400, 0x723fa455
0,         50,         50,        1,   230400, 0x7c49a392
0,         51,         51,        1,   230400, 0x272ea4b7
0,         52,         52,        1,   230400, 0xebdda081
0,         53,         53,        1,   230400, 0xfd26ab99
0,         54,         54,        1,   230400, 0xfa02a891
0,         55,         55,        1,   230400, 0xda2caa7f
0,         56,         56,        1,   230400, 0x2360a611
0,         57,         57,        1,   230400, 0xaa3baefd
0,         58,         58,        1,   230400, 0x0961ad5c
0,         59,         59,        1,   230400, 0x48d2ae47
0,         60,         60,        1,   230400, 0x20eda81b
0,         61,         61,        1,   230400, 0x8821adbb
0,         62,         62,        1,   230400, 0x1150b810
0,         63,         63,        1,   230400, 0x08dab596
0,         64,         64,        1,   230400, 0x4731b7a5
0,         65,         65,        1,   230400, 0xf382b87e
0,         66,         66,        1,   230400, 0xdba7bac2
0,         67,         67,        1,   230400, 0xf569acf9
0,         68,         68,        1,   230400, 0x22d8a95d
0,         69,         69,        1,   230400, 0xed0bb4fb
0,         70,         70,        1,   230400, 0x2dccb218
